<?xml version="1.0" encoding="UTF-8"?>
<svg version="1.1" xmlns="http://www.w3.org/2000/svg" width="826" height="430">
<path d="M0 0 C12.35924007 9.94221127 20.39705751 23.61886424 22.875 39.3125 C23.36074909 47.42077335 23.10751054 54.86910264 21.375 62.8125 C17.43655753 81.78946551 18.32127795 104.5253954 22.875 123.3125 C23.15778809 124.50335205 23.15778809 124.50335205 23.44628906 125.71826172 C27.63537188 142.68765275 34.00300521 159.03779158 40.1003418 175.39038086 C51.03096777 204.80248081 57.63285048 233.03891012 45.875 263.3125 C45.08693958 265.45726847 44.30199006 267.6031816 43.51953125 269.75 C38.80566159 282.532302 33.74376985 295.17321099 28.65625 307.81011963 C17.36682109 335.86869958 6.11343243 363.91488247 3.42578125 394.32421875 C3.34424805 395.21850586 3.26271484 396.11279297 3.17871094 397.03417969 C3.02181836 398.80065037 2.87726457 400.56827521 2.74707031 402.33691406 C2.19355436 408.79289964 0.90416778 413.28333222 -3.8125 418 C-13.96866446 425.76274255 -27.90422554 424.4491082 -39.90576172 422.96972656 C-96.68056141 413.96498401 -154.94015797 382.20614224 -204.125 353.3125 C-205.39674932 352.56809311 -206.6685628 351.82379584 -207.94042969 351.07958984 C-235.81962302 334.74931374 -235.81962302 334.74931374 -249.04296875 325.9921875 C-252.22436744 323.88627049 -255.44269513 321.84597897 -258.67578125 319.8203125 C-259.6507959 319.20776611 -260.62581055 318.59521973 -261.63037109 317.96411133 C-263.5145582 316.78229772 -265.40139255 315.60468849 -267.29150391 314.43237305 C-282.01746891 305.16434979 -296.66410802 293.90670129 -301.125 276.3125 C-301.125 274.9925 -301.125 273.6725 -301.125 272.3125 C-289.125 266.3125 -289.125 266.3125 -286.859375 265.3671875 C-284.62702712 264.00967865 -284.168128 262.67604318 -283.125 260.3125 C-282.2099386 259.10762443 -281.27084186 257.9207448 -280.3125 256.75 C-261.1062508 231.3753204 -261.93598092 188.27615916 -261.75 157.625 C-261.73622314 156.40458008 -261.72244629 155.18416016 -261.70825195 153.92675781 C-261.78401565 139.18213147 -264.05873085 124.08318649 -274.40625 112.83203125 C-278.07146114 109.47836305 -281.82580615 106.80150697 -286.125 104.3125 C-284.59287328 98.86493832 -280.89680493 95.33866557 -277.125 91.3125 C-276.48691406 90.59835938 -275.84882813 89.88421875 -275.19140625 89.1484375 C-252.65225471 65.03282356 -216.45376537 55.60715848 -186.17520142 45.65646362 C-171.45331999 40.81698662 -156.84737043 35.74931885 -142.3125 30.375 C-123.98666966 23.60381004 -105.51742091 17.33404622 -86.95385742 11.24633789 C-76.04971786 7.66394842 -65.20841825 3.9704164 -54.44961548 -0.03051758 C-36.34465811 -6.73751876 -17.01844044 -11.77190774 0 0 Z " fill="#000000" transform="translate(774.125,6.6875)"/>
<path d="M0 0 C0.98226562 -0.04350586 0.98226562 -0.04350586 1.984375 -0.08789062 C15.61161349 -0.25131692 29.24645831 5.05069991 41.89196777 9.62478638 C46.21664569 11.1884991 50.5523924 12.72109153 54.88671875 14.2578125 C55.80607208 14.58457474 56.72542542 14.91133698 57.67263794 15.2480011 C67.88248223 18.86706123 78.14581577 22.32589966 88.40921021 25.78945923 C104.49211421 31.21849817 120.53138432 36.73073032 136.46643066 42.58023071 C145.93264654 46.05230405 155.44008848 49.37225448 165 52.578125 C166.10359863 52.94905273 167.20719727 53.31998047 168.34423828 53.70214844 C173.78228534 55.52826978 179.22378641 57.34273495 184.671875 59.13867188 C214.77392577 69.15519931 244.3410196 81.64538226 264.375 107.3125 C262.94470039 110.78285852 261.29413117 112.35213742 258.25 114.5 C249.65891211 120.98461922 243.74093091 129.0578474 238.375 138.3125 C237.83746094 139.22644531 237.29992187 140.14039063 236.74609375 141.08203125 C221.73230517 168.58849604 225.94571217 209.54438309 234.16015625 238.72265625 C240.01593637 256.02639235 251.55400509 267.41852753 267.5625 275.5625 C271.78618279 277.60076757 276.0346005 279.53688202 280.375 281.3125 C276.21163165 298.47726425 265.70474579 308.65645351 251.1875 318 C250.13723633 318.68715088 249.08697266 319.37430176 248.00488281 320.08227539 C244.80269232 322.17129828 241.59021999 324.243602 238.375 326.3125 C237.44929199 326.91255859 236.52358398 327.51261719 235.56982422 328.13085938 C77.01096014 430.87630672 77.01096014 430.87630672 5.1875 430.625 C3.78854492 430.64916992 3.78854492 430.64916992 2.36132812 430.67382812 C-5.8961233 430.67963097 -12.88527833 429.02877017 -19.02856445 423.17016602 C-24.00791363 417.37602809 -24.06204677 409.13947999 -24.4375 401.875 C-25.69340913 384.44943782 -29.85641576 367.77145759 -35.6171875 351.30859375 C-36.19574745 349.64722885 -36.19574745 349.64722885 -36.78599548 347.95230103 C-41.74126846 333.91183959 -47.35550196 320.13119992 -52.93835449 306.33154297 C-58.32634382 293.01004376 -63.65524397 279.70228097 -68.21484375 266.0703125 C-68.69613487 264.63327469 -68.69613487 264.63327469 -69.18714905 263.16720581 C-79.76844796 230.74888234 -68.68427732 201.75480805 -57.0625 171.1875 C-45.03573206 139.50842667 -35.34342156 105.84206626 -42.125 71.6875 C-45.83150062 52.89554187 -43.97704732 36.68829624 -33.69921875 20.16796875 C-25.22681492 8.50445236 -14.80493184 0.20188543 0 0 Z " fill="#000000" transform="translate(73.625,-0.3125)"/>
<path d="M0 0 C0.74161377 0.00215515 1.48322754 0.0043103 2.24731445 0.00653076 C27.94125647 0.12562443 68.44201479 1.61128976 88.69921875 19.3125 C98.24581264 29.55957771 100.10650592 42.40911932 99.9375 55.9375 C99.92952393 57.12537109 99.92154785 58.31324219 99.91333008 59.53710938 C98.74894287 135.66936316 98.74894287 135.66936316 78.4375 155.6875 C69.79894885 162.69160336 58.94047016 164.01848086 48.18164062 165.26831055 C46.19512944 165.49911357 44.21081225 165.74854802 42.2265625 165.99804688 C9.907617 169.95775895 -27.59557547 172.96353993 -57.4375 157.3125 C-58.73300781 156.63380859 -58.73300781 156.63380859 -60.0546875 155.94140625 C-69.3658423 150.7198012 -76.05850883 144.09434717 -80.4375 134.3125 C-80.97503906 133.12720703 -80.97503906 133.12720703 -81.5234375 131.91796875 C-85.67145672 121.26722766 -86.284696 109.59222927 -87.4375 98.3125 C-87.53393799 97.39960205 -87.63037598 96.4867041 -87.72973633 95.54614258 C-90.39224141 68.76956711 -88.48380314 45.66957692 -70.921875 24.21875 C-53.49063147 3.82748398 -25.47065737 -0.13416938 0 0 Z " fill="#000000" transform="translate(401.4375,106.6875)"/>
</svg>
