<svg width="24" height="23" viewBox="0 0 24 23" fill="none" xmlns="http://www.w3.org/2000/svg">
<g clip-path="url(#clip0_413_5491)">
<path opacity="0.72" d="M23.9616 10.5525C23.9498 10.4377 23.8944 10.3312 23.8058 10.2531C23.7173 10.1751 23.6019 10.131 23.4816 10.1293H11.52C11.1952 10.1369 10.8781 10.2258 10.6002 10.3872C10.3223 10.5486 10.0933 10.7768 9.936 11.0493C9.79033 11.2929 9.7137 11.5689 9.7137 11.8497C9.7137 12.1305 9.79033 12.4064 9.936 12.6501C9.9776 12.7267 10.0393 12.7916 10.1151 12.8384C10.1908 12.8852 10.278 12.9122 10.368 12.9169H23.5104C23.6307 12.9152 23.7461 12.8711 23.8347 12.793C23.9232 12.715 23.9786 12.6084 23.9904 12.4937C23.9904 12.1349 23.9904 11.8313 23.9904 11.5737C23.9904 11.3161 23.9904 10.9021 23.9616 10.5525Z" fill="#3758F9"/>
<path d="M23.952 10.5525C23.9424 10.4385 23.889 10.3321 23.8021 10.2538C23.7151 10.1756 23.6008 10.1312 23.4816 10.1293H21.5616C21.4942 10.13 21.4278 10.1443 21.3666 10.1713C21.3054 10.1982 21.2508 10.2372 21.2064 10.2857C21.1616 10.3323 21.1281 10.3878 21.1082 10.4482C21.0883 10.5086 21.0825 10.5725 21.0912 10.6353C21.0912 10.9297 21.0912 11.2241 21.0912 11.5553C21.0888 13.0233 20.7006 14.4671 19.9623 15.7534C19.2241 17.0398 18.1596 18.1272 16.8672 18.9153C16.7328 18.9981 16.608 19.0993 16.464 19.1729C15.7596 19.5573 15.0038 19.8483 14.2175 20.0377L15.4752 22.1813C15.5179 22.2522 15.5795 22.3108 15.6538 22.3513C15.728 22.3917 15.8122 22.4124 15.8975 22.4113C15.9483 22.4201 16.0004 22.4201 16.0512 22.4113L16.3583 22.2917L16.6368 22.1813C17.0614 22.0123 17.475 21.8187 17.8752 21.6017V21.6017C19.7469 20.5913 21.3021 19.1189 22.3792 17.3376C23.4563 15.5564 24.0159 13.5311 24 11.4725C24 11.1321 23.9808 10.8653 23.952 10.5525Z" fill="#3758F9"/>
<path d="M17.1568 19.2848C17.0923 19.1799 16.9897 19.1013 16.8687 19.064H16.7343C16.651 19.0647 16.5689 19.0835 16.4943 19.1192C15.1254 19.8657 13.5766 20.2558 12.0016 20.2508C9.58438 20.246 7.26762 19.3236 5.55839 17.6856C3.84916 16.0475 2.88667 13.8273 2.88159 11.5108C2.88667 9.19432 3.84916 6.97409 5.55839 5.33608C7.26762 3.69806 9.58438 2.77568 12.0016 2.77082C13.5758 2.7713 15.1233 3.16106 16.4943 3.90242C16.566 3.94601 16.6495 3.96841 16.7343 3.96682H16.8399C16.9057 3.95289 16.9679 3.9261 17.0224 3.88811C17.0769 3.85011 17.1227 3.80174 17.1568 3.74602L18.1168 2.14522C18.1802 2.03875 18.1977 1.91271 18.1654 1.79407C18.1331 1.67542 18.0536 1.57361 17.9439 1.51042C16.1369 0.531831 14.0964 0.018369 12.0208 0.0200235C8.83977 0.0248894 5.79046 1.23806 3.54113 3.39367C1.29179 5.54928 0.0258905 8.47153 0.020813 11.52C0.0258905 14.5685 1.29179 17.4908 3.54113 19.6464C5.79046 21.802 8.83977 23.0152 12.0208 23.02C14.0964 23.0217 16.1369 22.5082 17.9439 21.5296C17.9989 21.5001 18.0471 21.4603 18.0856 21.4126C18.1242 21.3648 18.1524 21.3102 18.1685 21.2519C18.1846 21.1935 18.1884 21.1327 18.1795 21.0729C18.1706 21.0132 18.1493 20.9557 18.1168 20.904L17.1568 19.2848Z" fill="#3758F9"/>
<path opacity="0.56" d="M13.3727 12.88H10.3392C10.2532 12.8741 10.1698 12.8484 10.0963 12.8052C10.0228 12.762 9.96121 12.7024 9.91676 12.6316V12.6316L15.4944 22.0984C15.5371 22.1693 15.5988 22.228 15.673 22.2684C15.7473 22.3088 15.8314 22.3295 15.9168 22.3284C15.9708 22.3371 16.026 22.3371 16.08 22.3284C16.7143 22.1095 17.3278 21.8386 17.9136 21.5188C17.9686 21.4892 18.0166 21.4494 18.0552 21.4017C18.0938 21.354 18.1219 21.2994 18.1381 21.241C18.1542 21.1827 18.158 21.1218 18.1491 21.0621C18.1402 21.0023 18.1188 20.9449 18.0864 20.8932L13.3727 12.88Z" fill="#3758F9"/>
</g>
<defs>
<clipPath id="clip0_413_5491">
<rect width="24" height="23" fill="white"/>
</clipPath>
</defs>
</svg>
